<?xml version="1.0" standalone="no"?>
<!DOCTYPE svg PUBLIC "-//W3C//DTD SVG 20010904//EN"
 "http://www.w3.org/TR/2001/REC-SVG-20010904/DTD/svg10.dtd">
<svg version="1.0" xmlns="http://www.w3.org/2000/svg"
 width="150.000000pt" height="150.000000pt" viewBox="0 0 150.000000 150.000000"
 preserveAspectRatio="xMidYMid meet">

<g transform="translate(0.000000,150.000000) scale(0.100000,-0.100000)"
fill="#000000" stroke="none">
<path d="M630 1287 c-147 -61 -250 -179 -250 -286 0 -57 27 -179 51 -228 26
-53 70 -86 118 -87 l36 -1 3 60 c3 55 1 62 -25 82 -15 12 -25 24 -23 26 12 9
138 67 147 67 6 0 16 27 23 60 15 72 30 80 22 13 -7 -67 -18 -93 -40 -93 -11
0 -30 -8 -43 -19 -13 -10 -34 -21 -46 -25 -28 -9 -29 -22 -3 -36 16 -9 22 -7
27 7 14 39 23 43 57 26 17 -9 51 -19 76 -22 42 -6 45 -8 48 -39 2 -18 -2 -40
-9 -48 -6 -8 -9 -17 -6 -21 4 -3 9 2 13 11 4 11 18 16 44 16 21 0 73 7 115 15
43 8 81 12 86 9 11 -7 25 24 33 71 6 35 4 44 -18 64 -14 13 -28 36 -31 52 -4
16 -11 31 -16 34 -12 8 -12 65 1 65 16 0 41 -46 34 -64 -3 -9 -1 -16 5 -16 17
0 13 47 -8 88 -10 20 -24 56 -30 78 -34 127 -243 202 -391 141z m288 -200 c26
-24 28 -56 7 -96 -17 -34 -33 -41 -90 -41 -56 0 -78 21 -70 64 10 46 32 76 68
91 35 15 52 11 85 -18z m97 -119 c8 -28 16 -122 9 -115 -4 4 -13 2 -21 -4 -22
-19 -46 9 -40 46 11 67 40 108 52 73z"/>
<path d="M1195 811 c-49 -22 -71 -46 -82 -90 -8 -33 -14 -36 -113 -73 -58 -21
-146 -54 -196 -74 l-91 -36 -149 63 c-116 48 -159 71 -194 105 -41 38 -52 43
-124 55 -74 11 -80 11 -93 -7 -13 -17 -11 -22 19 -47 58 -50 74 -57 144 -64
52 -4 103 -20 202 -61 73 -31 129 -59 125 -62 -4 -4 -63 -28 -129 -53 -121
-45 -122 -45 -165 -30 -119 41 -261 -36 -242 -130 18 -90 170 -137 273 -84 34
16 51 34 68 68 l23 47 132 47 c73 27 145 54 160 62 40 20 44 10 14 -29 -36
-47 -16 -71 44 -54 27 8 26 8 309 -111 120 -51 179 -54 212 -13 43 53 20 72
-220 172 -155 65 -191 83 -180 93 7 7 63 31 124 54 107 40 112 41 147 26 49
-20 133 -19 182 4 38 17 73 47 64 55 -2 2 -37 -1 -78 -6 -81 -10 -69 -16 -131
69 l-30 41 50 37 c27 20 50 39 50 41 0 12 -90 1 -125 -15z m-878 -446 c34 -14
35 -17 30 -51 -4 -20 -7 -38 -9 -39 -2 -1 -26 -5 -54 -9 -50 -6 -52 -5 -78 28
l-26 35 33 25 c37 30 54 32 104 11z"/>
<path d="M990 745 c0 -8 5 -15 10 -15 6 0 10 7 10 15 0 8 -4 15 -10 15 -5 0
-10 -7 -10 -15z"/>
<path d="M1020 745 c0 -8 7 -15 15 -15 8 0 15 7 15 15 0 8 -7 15 -15 15 -8 0
-15 -7 -15 -15z"/>
<path d="M1060 745 c0 -8 5 -15 10 -15 6 0 10 7 10 15 0 8 -4 15 -10 15 -5 0
-10 -7 -10 -15z"/>
<path d="M915 740 c-4 -6 -3 -16 3 -22 6 -6 12 -6 17 2 4 6 3 16 -3 22 -6 6
-12 6 -17 -2z"/>
<path d="M950 735 c0 -8 7 -15 15 -15 8 0 15 7 15 15 0 8 -7 15 -15 15 -8 0
-15 -7 -15 -15z"/>
<path d="M826 731 c-4 -7 -5 -15 -2 -18 9 -9 19 4 14 18 -4 11 -6 11 -12 0z"/>
<path d="M855 731 c-3 -5 -1 -12 5 -16 5 -3 10 1 10 9 0 18 -6 21 -15 7z"/>
<path d="M885 731 c-3 -5 -1 -12 5 -16 5 -3 10 1 10 9 0 18 -6 21 -15 7z"/>
</g>
</svg>
